<?xml version="1.0" standalone="no"?>
<!DOCTYPE svg PUBLIC "-//W3C//DTD SVG 1.1//EN" "http://www.w3.org/Graphics/SVG/1.1/DTD/svg11.dtd" >
<!--
2013-9-30: Created.
-->
<svg>
<metadata>
Created by iconfont
</metadata>
<defs>

<font id="iconfont" horiz-adv-x="1024" >
  <font-face
    font-family="iconfont"
    font-weight="500"
    font-stretch="normal"
    units-per-em="1024"
    ascent="896"
    descent="-128"
  />
    <missing-glyph />
    
    <glyph glyph-name="caigou" unicode="&#58970;" d="M805.205333 460.629333l-297.813333-297.898666a66.645333 66.645333 0 0 0-94.549333 0L259.584 315.904A66.816 66.816 0 1 0 354.133333 410.453333L459.946667 304.469333 710.826667 555.093333a66.730667 66.730667 0 1 0 94.464-94.464M512.682667 896A512.256 512.256 0 0 1 0 384c0-282.709333 229.290667-512 512.682667-512a512 512 0 0 1 0 1024"  horiz-adv-x="1024" />

    
    <glyph glyph-name="gengduo" unicode="&#58971;" d="M287.691703-128a68.242286 68.242286 0 0 1 48.274286 20.041143L779.723703 335.725714a68.169143 68.169143 0 0 1 0 96.548572L335.965989 875.958857a68.242286 68.242286 0 1 1-96.548572-96.548571L634.900846 384 239.417417-11.483429A68.242286 68.242286 0 0 1 287.691703-128"  horiz-adv-x="1024" />

    
    <glyph glyph-name="bohui" unicode="&#58972;" d="M620.970667 546.389333L603.562667 368.64a68.266667 68.266667 0 0 0-68.181334-61.44h-12.714666a68.266667 68.266667 0 0 0-68.181334 61.44l-17.322666 177.749333a90.794667 90.794667 0 0 0 23.381333 71.594667 91.904 91.904 0 0 0 136.96 0c18.090667-19.456 26.112-45.482667 23.466667-71.594667M529.408 102.570667a67.754667 67.754667 0 0 0-59.477333 34.133333 68.864 68.864 0 0 0 0 68.181333 68.437333 68.437333 0 0 0 127.573333-34.133333c0-38.058667-30.72-68.266667-68.096-68.266667M512.682667 896A512.170667 512.170667 0 0 1 0 384c0-282.709333 229.290667-512 512.682667-512a512.085333 512.085333 0 0 1 0 1024"  horiz-adv-x="1024" />

    
    <glyph glyph-name="daishenpi" unicode="&#58973;" d="M512-128A512 512 0 1 0 512 896a512 512 0 0 0 0-1024zM341.333333 298.666667h379.392a85.333333 85.333333 0 1 1 0 170.666666H341.333333a85.333333 85.333333 0 1 1 0-170.666666z"  horiz-adv-x="1024" />

    
    <glyph glyph-name="paizhaohuise" unicode="&#58975;" d="M1149.238303 13.560242c0-24.638061-16.41503-41.053091-41.053091-41.05309H123.128242c-24.60703 0-41.053091 16.41503-41.05309 41.05309V629.201455c0 24.638061 16.446061 41.053091 41.05309 41.05309h188.819394c20.51103 0 36.926061 12.31903 41.022061 32.830061l20.51103 82.106182c4.12703 16.41503 20.542061 32.830061 41.053091 32.83006h410.437818c20.542061 0 36.926061-12.31903 41.053091-32.83006l20.511031-82.106182c4.096-16.41503 20.51103-32.830061 41.02206-32.830061h180.627394c24.638061 0 41.053091-16.41503 41.053091-41.05309v-615.641213zM1108.185212 752.360727h-155.989333l-12.288 49.245091C927.557818 854.946909 878.343758 896 820.875636 896H410.406788c-57.406061-4.096-106.682182-41.053091-119.001212-94.394182l-12.319031-49.245091H123.128242C53.372121 752.360727 0 698.988606 0 629.201455v-615.641213c0-69.787152 53.372121-123.128242 123.128242-123.128242h985.05697c69.818182 0 123.128242 53.341091 123.128243 123.128242V629.201455c0 65.691152-53.341091 123.159273-123.128243 123.159272zM985.05697 575.860364h-41.053091c-24.60703 0-41.053091-16.41503-41.053091-41.053091 0-24.638061 16.446061-41.053091 41.053091-41.053091h41.053091c24.60703 0 41.022061 16.446061 41.02206 41.053091 0 24.638061-16.41503 41.053091-41.02206 41.053091m-369.384728-398.118788c-90.298182 0-164.150303 73.852121-164.150303 164.150303s73.852121 164.181333 164.150303 164.181333 164.150303-73.852121 164.150303-164.150303-73.852121-164.212364-164.150303-164.212364m0 410.437819c-135.478303 0-246.287515-110.778182-246.287515-246.256485 0-135.416242 110.809212-246.256485 246.287515-246.256485 135.416242 0 246.225455 110.840242 246.225455 246.256485 0 135.447273-110.778182 246.256485-246.225455 246.256485"  horiz-adv-x="1241" />

    
    <glyph glyph-name="jiancegengxin" unicode="&#58976;" d="M511.97888 834.048c57.301333 0 114.56-12.288 167.765333-36.864 49.066667-20.48 98.133333-49.066667 139.050667-89.984a389.333333 389.333333 0 0 0 90.026667-139.093333c24.533333-49.066667 36.693333-110.464 36.693333-163.626667 0-57.301333-12.202667-114.517333-36.693333-163.626667-20.48-49.066667-49.152-98.218667-90.026667-139.093333a387.925333 387.925333 0 0 0-139.093333-89.984c-49.066667-24.576-110.378667-36.821333-163.626667-36.821333a399.786667 399.786667 0 0 0-167.722667 36.821333c-49.066667 20.48-98.176 49.066667-139.093333 90.026667a387.328 387.328 0 0 0-90.026667 139.093333c-24.490667 49.066667-36.736 106.282667-36.736 163.584 0 57.258667 12.245333 114.517333 36.778667 167.722667 20.437333 49.066667 49.066667 98.218667 89.984 139.093333a389.205333 389.205333 0 0 0 139.093333 90.026667 432.682667 432.682667 0 0 0 163.626667 32.682666m454.101333-237.226666a501.333333 501.333333 0 0 1-106.410666 155.434666A499.754667 499.754667 0 0 1 704.277547 858.581333a520.277333 520.277333 0 0 1-384.554667 0 499.925333 499.925333 0 0 1-155.434667-106.410666A501.162667 501.162667 0 0 1 57.920213 596.821333 517.632 517.632 0 0 1 21.09888 404.48c0-65.493333 12.245333-130.901333 36.821333-192.256a502.186667 502.186667 0 0 1 106.368-155.434667 500.522667 500.522667 0 0 1 155.434667-106.325333c61.397333-24.576 126.848-36.821333 192.256-36.821333 65.450667 0 130.901333 12.245333 192.298667 36.821333a500.864 500.864 0 0 1 155.392 106.325333 501.76 501.76 0 0 1 106.410666 155.434667c24.533333 61.354667 36.821333 126.762667 36.821334 192.256 0 65.450667-12.288 130.858667-36.821334 192.256M362.005547 135.168h299.946666c15.018667 0 27.306667-12.288 27.306667-27.306667 0-14.933333-12.288-27.221333-27.306667-27.221333H362.005547a27.434667 27.434667 0 0 0-27.306667 27.264c0 14.933333 12.288 27.264 27.306667 27.264z m0 81.834667h299.946666c15.018667 0 27.306667-12.288 27.306667-27.306667a27.306667 27.306667 0 0 0-27.306667-27.178667H362.005547a27.349333 27.349333 0 0 0-27.306667 27.221334c0 14.933333 12.288 27.264 27.306667 27.264z m149.973333 439.04l-193.578667-193.621334H362.005547a27.306667 27.306667 0 0 0 27.306666-27.221333v-136.362667h245.461334V435.2a27.306667 27.306667 0 0 0 27.221333 27.264h43.605333l-193.578666 193.621333z m286.378667-220.842667a27.477333 27.477333 0 0 0-27.306667-27.306667H689.25888v-136.362666a27.306667 27.306667 0 0 0-27.306667-27.221334H362.005547a27.349333 27.349333 0 0 0-27.306667 27.221334V407.893333H252.821547a27.349333 27.349333 0 0 0-27.221334 27.306667c0 8.192 2.730667 14.933333 8.149334 19.072l259.072 259.072a26.794667 26.794667 0 0 0 19.114666 8.192c6.826667 0 15.018667-2.730667 19.114667-8.192l259.029333-259.072c5.546667-4.096 8.234667-10.88 8.234667-19.072z"  horiz-adv-x="1024" />

    
    <glyph glyph-name="shoujihao" unicode="&#58977;" d="M764.881455 50.501818a14.289455 14.289455 0 0 0-14.24291-14.149818H273.082182a14.336 14.336 0 0 0-14.242909 14.289455V757.76c0 7.912727 6.423273 14.289455 14.289454 14.289455h477.509818c7.819636 0 14.242909-6.376727 14.24291-14.289455v-707.304727z m-252.974546-142.568727a48.221091 48.221091 0 0 0 0 96.349091 48.174545 48.174545 0 0 0 0-96.349091zM457.076364 830.743273a9.728 9.728 0 1 0 0-19.456 9.728 9.728 0 0 0 0 19.456z m27.415272-9.076364c0 5.632 4.654545 10.24 10.286546 10.24h83.642182c5.585455 0 10.24-4.608 10.24-10.24v-0.744727c0-5.632-4.654545-10.286545-10.24-10.286546H494.824727a10.379636 10.379636 0 0 0-10.286545 10.286546v0.744727zM713.495273 896H310.272C254.603636 896 209.454545 850.850909 209.454545 795.182545v-822.36509C209.454545-82.897455 254.603636-128 310.272-128h403.223273a100.770909 100.770909 0 0 1 100.770909 100.817455V795.182545C814.266182 850.850909 769.117091 896 713.541818 896z"  horiz-adv-x="1024" />

    
    <glyph glyph-name="yanzhengma" unicode="&#58978;" d="M293.647059 397.251765a67.704471 67.704471 0 1 1 0.060235 135.408941 67.704471 67.704471 0 0 1 0-135.469177z m248.530823 0a67.644235 67.644235 0 0 1 58.608942 101.616941 67.704471 67.704471 0 0 1-126.373648-33.852235c0-37.466353 30.298353-67.824941 67.764706-67.824942z m248.470589 0a67.764706 67.764706 0 1 1 0 135.529411 67.764706 67.764706 0 0 1 0-135.529411z m-278.166589-338.883765l289.490824-159.683765c43.610353-24.094118 78.968471-3.132235 78.96847 46.682353v113.001412h67.644236A135.710118 135.710118 0 0 1 1084.235294 194.078118v564.404706A135.649882 135.649882 0 0 1 948.585412 894.192941H135.710118A135.649882 135.649882 0 0 1 0.060235 758.482824v-564.404706a135.649882 135.649882 0 0 1 135.649883-135.710118h376.771764z m22.106353 90.352941H135.529412a44.815059 44.815059 0 0 0-45.176471 45.056v565.007059a45.176471 45.176471 0 0 0 45.176471 44.995765H948.705882a45.116235 45.116235 0 0 0 45.116236-44.995765v-565.007059a45.176471 45.176471 0 0 0-45.116236-44.995765h-158.117647v-135.529411l-256 135.529411z"  horiz-adv-x="1084" />

    
    <glyph glyph-name="guanyupingtai" unicode="&#58979;" d="M491.435537-38.229408c-244.18113 0-442.794298 198.613168-442.794298 442.794298C48.641239 648.703353 247.254407 847.359187 491.435537 847.359187s442.794298-198.655834 442.794298-442.794297c0-244.18113-198.613168-442.794298-442.794298-442.794298M944.213826 595.839397a489.471592 489.471592 0 0 1-105.258578 156.202536A489.556925 489.556925 0 0 1 682.667378 857.343179 488.020927 488.020927 0 0 1 491.435537 895.999147C425.088926 895.999147 360.747646 882.985824 300.16103 857.343179a489.556925 489.556925 0 0 1-156.245203-105.301246 489.471592 489.471592 0 0 1-105.258579-156.15987A488.020927 488.020927 0 0 1 0.00128 404.522223a490.154258 490.154258 0 0 1 143.914547-347.519711 490.239591 490.239591 0 0 1 347.51971-143.914546 490.751591 490.751591 0 0 1 347.519711 143.914546A489.684925 489.684925 0 0 1 944.213826 213.333049c25.599979 60.586616 38.655968 124.927896 38.655968 191.274507 0 66.346611-13.013322 130.687891-38.655968 191.274507M586.752791 577.066079c-13.055989-12.15999-28.799976-20.949316-47.146627-20.949316-18.346651 0-34.133305 8.789326-47.359961 20.906649a60.799949 60.799949 0 0 0-19.75465 45.525296c0 17.237319 6.613328 33.365306 19.75465 45.653295 13.226656 12.245323 29.013309 19.75465 47.359961 19.75465 18.346651 0 34.133305-6.143995 47.146627-18.431984 13.055989-12.245323 19.62665-29.738642 19.62665-46.975961 0-17.279986-6.570661-33.322639-19.62665-45.482629z m0.554666-436.906302c-24.021313-9.471992-34.431971-6.485328-48.725292-11.519991a152.49054 152.49054 0 0 0-49.834626-7.423994c-29.098642 0-51.711957 7.125327-67.839943 21.290649-16.170653 14.207988-33.621305 32.17064-33.621305 54.058622 0 0.981333-2.346665 42.197298 11.221324 70.399941l41.642632 97.493252c2.730664 10.154658 4.991996 19.797317 6.826661 28.88531 1.791999 9.087992 2.687998 10.154658 2.687997 17.663985 0 13.567989-8.533326 23.039981-14.207988 28.330643-5.546662 5.375996-29.354642 8.021327-45.141296 8.021327-7.807993 0-15.786654-1.194666-23.893313-3.626664-8.10666-2.431998-16.981319-4.735996-22.783981-6.911994l2.175998 40.0213c19.669317 7.97866 59.178617 19.199984 77.141269 24.917312a169.557192 169.557192 0 0 0 50.986624 8.533326c28.885309 0 58.453285-6.997328 74.026605-20.906649 15.658654-13.951988 35.157304-36.437303 35.157304-58.751951 0-4.607996-0.597333-12.714656-1.663998-24.362646a160.298533 160.298533 0 0 0-5.973329-31.999974l-48.767959-97.151919a287.48776 287.48776 0 0 1-6.570661-29.055975 336.725053 336.725053 0 0 1-2.943998-39.167968c0-14.079988 3.157331-23.637314 9.471992-28.714642 6.271995-5.119996 12.842656-13.482655 28.330643-13.482656 21.034649 0 19.75465-3.54133 40.319967 6.186662l-8.021327-32.725306z"  horiz-adv-x="1024" />

    
    <glyph glyph-name="qinglihuancun" unicode="&#58980;" d="M86.204044 413.416727H915.085498v149.876364h-319.348363c-17.314909 0-31.371636 14.708364-31.371637 32.814545V787.037091a42.589091 42.589091 0 0 1-42.542545 43.52H479.420044c-23.784727 0-42.402909-19.083636-42.402909-43.52v-191.022546a32.861091 32.861091 0 0 0-9.309091-23.179636 31.138909 31.138909 0 0 0-22.202182-9.495273h-319.301818l-0.046546-149.922909z m604.858181-190.650182c5.678545 0 11.170909-1.582545 16.104728-4.561454a33.047273 33.047273 0 0 0 15.36-29.649455v-209.594181h142.196363l-1.861818 10.84509a802.536727 802.536727 0 0 0-11.310545 131.909819v226.164363H149.645498v-226.210909a798.580364 798.580364 0 0 0-11.403636-131.863273l-1.861818-10.84509h142.196363v209.221818a33.047273 33.047273 0 0 0 15.825455 28.392727 29.789091 29.789091 0 0 0 31.325091 0 33.093818 33.093818 0 0 0 15.778909-28.392727v-209.221818h127.627636v209.221818a32.116364 32.116364 0 0 0 31.418182 32.674909c17.361455 0 31.511273-14.661818 31.511273-32.674909v-209.221818h127.534545v209.221818a33.652364 33.652364 0 0 0 15.36 30.021818 30.999273 30.999273 0 0 0 16.104727 4.561454zM97.002589-86.481455a31.045818 31.045818 0 0 0-24.948364 12.939637 33.559273 33.559273 0 0 0-5.352727 28.672c13.032727 54.690909 19.781818 110.638545 20.014546 166.632727v226.210909h-9.309091A53.946182 53.946182 0 0 0 23.274589 402.618182V574.231273C23.274589 604.299636 46.91968 628.829091 75.964044 628.829091h298.123636V787.037091C374.08768 847.080727 421.377862 896 479.513135 896h42.309818c58.135273 0 105.472-48.872727 105.472-108.962909v-158.254546h297.984c28.997818 0 52.596364-24.482909 52.689454-54.458181v-171.845819c0-30.114909-23.598545-54.597818-52.642909-54.597818h-9.309091l-1.442909-9.309091v-216.715636c0-83.130182 16.384-152.855273 19.688727-166.027636a33.978182 33.978182 0 0 0-5.026909-29.463273 31.138909 31.138909 0 0 0-24.901818-12.846546H97.002589z"  horiz-adv-x="1024" />

    
    <glyph glyph-name="youchenghuanweigongsi" unicode="&#58981;" d="M786.485131 509.15245a14.094694 14.094694 0 0 0-14.215162-14.275395h-78.785725a14.094694 14.094694 0 0 0-14.215162 14.275395V577.03587c0 8.011087 6.264308 14.275395 14.215162 14.275395h78.785725c7.950853 0 14.215161-6.264308 14.215162-14.275395v-67.88342z m0-200.93974a14.094694 14.094694 0 0 0-14.215162-14.275395h-78.785725a14.094694 14.094694 0 0 0-14.215162 14.275395V375.554026c0 8.011087 6.264308 14.275395 14.215162 14.275395h78.785725c7.950853 0 14.215161-6.264308 14.215162-14.275395v-67.341316z m0-201.481844a14.154928 14.154928 0 0 0-14.215162-14.275395h-78.785725a14.094694 14.094694 0 0 0-14.215162 14.275395v67.401549c0 7.950853 6.264308 14.215161 14.215162 14.215162h78.785725c7.950853 0 14.215161-6.264308 14.215162-14.215162v-67.461783zM334.310481 508.489879a14.094694 14.094694 0 0 0-14.215161-14.215161H243.056373a14.154928 14.154928 0 0 0-14.275396 14.275395V577.03587c0 8.011087 6.324542 14.275395 14.275396 14.275395h78.725491c8.011087 0 14.215161-6.264308 14.215162-14.275395L334.310481 508.550113z m0-200.819273a14.094694 14.094694 0 0 0-14.215161-14.275395H243.056373a14.154928 14.154928 0 0 0-14.275396 14.275395V375.554026c0 8.011087 6.324542 14.275395 14.275396 14.275395h78.725491c8.011087 0 14.215161-6.264308 14.215162-14.275395L334.310481 307.670606z m0-201.481844a14.094694 14.094694 0 0 0-14.215161-14.275395H243.056373a14.154928 14.154928 0 0 0-14.275396 14.275395v66.738979c0 8.011087 6.324542 14.275395 14.275396 14.275395h78.725491c8.011087 0 14.215161-6.264308 14.215162-14.275395l-1.686545-66.738979z m643.898629-100.46987h-54.872933V629.559687a46.92208 46.92208 0 0 1-27.346116 42.163614l-273.220222 142.753953a58.426723 58.426723 0 0 1-47.946053 0c-17.106381-6.806412-27.948453-23.370689-27.40635-113.540591v-766.594747h-56.800412V776.831169c0 92.458783 0 106.192075-20.539704 113.600825a70.232535 70.232535 0 0 1-54.752465 0l-312.613085-165.040435a48.729092 48.729092 0 0 1-27.40635-43.368289V5.116555H20.552955c-13.673058 0-20.539704-7.408749-20.539704-14.215162v-79.388063c0-6.866646 6.866646-14.275395 20.539704-14.275395H978.20911c6.204075 0 19.335029 7.408749 20.47947 14.275395v78.785726c1.746778 8.55319-13.070721 15.419836-20.47947 15.419836z"  horiz-adv-x="1024" />

    
    <glyph glyph-name="paizhaoshangchuan" unicode="&#58982;" d="M608.256 510.748444A162.702222 162.702222 0 0 1 446.008889 348.558222a162.759111 162.759111 0 0 1 162.247111-162.247111 162.759111 162.759111 0 0 1 162.247111 162.247111 162.702222 162.702222 0 0 1-162.247111 162.190222M973.255111 498.574222h-40.561778c-24.348444 0-40.561778 16.213333-40.561777 40.561778s16.156444 40.561778 40.561777 40.561778h40.561778c24.291556 0 40.504889-16.213333 40.504889-40.561778s-16.213333-40.561778-40.504889-40.561778M608.312889 105.244444a243.996444 243.996444 0 0 0-243.313778 243.313778 244.053333 244.053333 0 0 0 243.313778 243.313778 243.996444 243.996444 0 0 0 243.256889-243.313778 243.939556 243.939556 0 0 0-243.256889-243.313778m486.627555 648.817778h-154.168888l-12.117334 48.64A121.742222 121.742222 0 0 1 810.951111 896H405.560889C348.728889 892.017778 300.032 855.438222 287.914667 802.702222l-12.231111-48.64H121.628444c-68.949333 0-121.571556-52.736-121.571555-121.628444v-608.312889c0-68.949333 52.679111-121.628444 121.571555-121.628445h973.255112c69.006222 0 121.685333 52.679111 121.685333 121.628445V632.433778c0 64.853333-52.736 121.628444-121.685333 121.628444"  horiz-adv-x="1251" />

    
    <glyph glyph-name="sousuo" unicode="&#58983;" d="M102.815289 455.338667a365.511111 365.511111 0 0 0 365.112889 365.112889 365.511111 365.511111 0 0 0 365.112889-365.112889 365.511111 365.511111 0 0 0-365.112889-365.112889 365.511111 365.511111 0 0 0-365.112889 365.112889m880.753778-500.508445l-189.44 191.715556a40.391111 40.391111 0 0 1-6.826667 5.632 439.011556 439.011556 0 0 1 121.287111 303.160889C908.589511 698.311111 710.900622 896 467.928178 896 224.955733 896 27.323733 698.311111 27.323733 455.338667c0-242.972444 197.632-440.661333 440.604445-440.661334 95.573333 0 184.035556 30.663111 256.341333 82.545778 1.991111-4.209778 4.551111-8.248889 8.021333-11.776l189.496889-191.772444a43.406222 43.406222 0 1 1 61.781334 61.155555"  horiz-adv-x="1024" />

    
    <glyph glyph-name="guanbi" unicode="&#58984;" d="M512-128C229.233778-128 0 101.233778 0 384S229.233778 896 512 896s512-229.233778 512-512-229.233778-512-512-512z m0 56.888889c251.363556 0 455.111111 203.747556 455.111111 455.111111S763.363556 839.111111 512 839.111111 56.888889 635.363556 56.888889 384s203.747556-455.111111 455.111111-455.111111zM569.400889 395.264l139.292444 139.292444a28.416 28.416 0 1 1-40.220444 40.220445l-139.292445-139.292445-139.292444 139.292445a28.416 28.416 0 1 1-40.220444-40.220445l139.292444-139.292444-139.292444-139.292444a28.416 28.416 0 1 1 40.220444-40.220445l139.292444 139.292445 139.292445-139.292445a28.359111 28.359111 0 0 1 40.220444 0 28.416 28.416 0 0 1 0 40.220445l-139.292444 139.292444z"  horiz-adv-x="1024" />

    
    <glyph glyph-name="gongzuozhongxin" unicode="&#58985;" d="M534.475676 694.589271a32.151992 32.151992 0 0 1-45.309734 0L137.234738 342.658067a31.640018 31.640018 0 0 1-9.317934-22.680466v-383.929603c0-35.377431 28.619369-63.9968 63.9968-63.996801h255.936004v255.987201l127.9936 0.511974V-127.948803h255.9872c35.326234 0 63.9968 28.619369 63.996801 63.996801v383.929603a32.100795 32.100795 0 0 1-9.420329 22.680466l-351.931204 351.931204z m480.180791-287.985601L534.680466 886.579671a32.049598 32.049598 0 0 1-45.309735 0L9.445928 406.60367a31.9984 31.9984 0 1 1 45.309734-45.309735l457.346733 457.346733 457.295535-457.346733a32.049598 32.049598 0 0 1 45.258537 45.258537v0.051198z"  horiz-adv-x="1024" />

    
    <glyph glyph-name="fanhui" unicode="&#58986;" d="M721.468181-127.999535c-17.454538 0-34.909075 6.702542-48.267614 20.014537L229.48295 335.686073a68.142514 68.142514 0 0 0 0 96.535229L673.247112 875.985464a68.235605 68.235605 0 1 0 96.535229-96.535229L374.239248 384.000233l395.496548-395.403457A68.235605 68.235605 0 0 0 721.468181-128.04608"  horiz-adv-x="1024" />

    
    <glyph glyph-name="huoqudizhi" unicode="&#58987;" d="M490.576417 345.445427a178.004769 178.004769 0 1 0-0.078763 356.167064 178.004769 178.004769 0 0 0 0-356.167064m0 550.397047C285.004538 895.921237 118.18414 731.306207 118.18414 528.333513c0-202.972694 372.392278-603.798477 372.392277-603.798477s372.392278 400.904546 372.392278 603.798477C862.968695 731.306207 696.148296 895.921237 490.576417 895.921237"  horiz-adv-x="1024" />

    
    <glyph glyph-name="wode" unicode="&#58988;" d="M24.380952-16.091429c0 179.931429 118.052571 325.778286 263.704381 325.778286h421.985524c145.603048 0 263.655619-145.846857 263.655619-325.778286a65.194667 65.194667 0 0 0-65.145905-65.145904H89.526857A65.048381 65.048381 0 0 0 24.380952-16.091429M499.029333 896c59.245714 0 116.053333-23.503238 157.988572-65.389714a223.47581 223.47581 0 0 0 65.389714-157.93981v-55.881143a223.329524 223.329524 0 1 0-446.756571 0V672.670476A223.427048 223.427048 0 0 0 499.029333 896"  horiz-adv-x="1024" />

    
    <glyph glyph-name="tongxunlu" unicode="&#58989;" d="M201.835789 21.504c0 14.012632-10.455579 34.977684-34.977684 34.977684H61.925053c-21.018947 0-34.977684-19.186526-34.977685-34.977684 0-15.737263 8.730947-34.923789 34.977685-34.923789h104.933052c26.246737 0 34.977684 20.911158 34.977684 34.923789M61.925053 721.111579h104.986947c26.192842 0 34.977684 20.965053 34.977684 34.977684s-10.509474 34.977684-34.977684 34.977684H61.925053c-21.018947-0.053895-34.977684-19.240421-34.977685-34.977684 0-15.791158 8.730947-34.977684 34.977685-34.977684m739.813052-533.450105c-12.288-26.192842-54.272-78.686316-96.202105-78.686316-45.433263 0-157.426526 61.224421-251.850105 190.625684-87.417263 120.670316-129.455158 209.92-129.455158 267.587369 0 47.265684 31.528421 68.284632 47.265684 80.464842l5.22779 3.503158c19.240421 13.958737 47.211789 17.461895 57.721263 17.461894 19.240421 0 27.971368-12.234105 33.253052-20.965052 3.449263-8.784842 38.426947-85.746526 41.984-94.423579 5.281684-14.066526 3.503158-36.756211-12.288-48.990316l-3.449263-1.778526c-8.730947-5.227789-24.468211-17.461895-26.192842-29.696-1.832421-7.006316 1.724632-14.012632 6.952421-21.018948 26.300632-36.702316 111.939368-146.917053 127.676632-160.875789 12.234105-12.234105 27.971368-14.012632 38.480842-3.503158a105.633684 105.633684 0 0 1 15.737263 15.791158l1.832421 1.724631c1.724632 0 8.730947 7.006316 22.743579 7.006316 10.401684 0 19.186526-3.449263 29.642105-10.509474 26.300632-17.461895 83.968-57.667368 83.968-57.667368h1.778527c6.898526-12.288 17.354105-31.528421 5.173894-56.050526M901.389474 896H166.912c-26.246737 0-52.493474-26.246737-52.493474-52.493474v-17.461894h52.493474c40.205474 0 69.901474-27.971368 69.901474-69.955369s-29.696-69.901474-69.901474-69.901474h-52.493474v-104.986947h52.493474c40.205474 0 69.901474-27.971368 69.901474-69.955368 0-41.930105-29.696-69.901474-69.901474-69.901474h-52.493474v-104.986947h52.493474c40.205474 0 69.901474-27.971368 69.901474-69.955369s-29.696-69.901474-69.901474-69.901473h-52.493474v-104.986948h52.493474c40.205474 0 69.901474-27.971368 69.901474-69.955368s-29.696-69.955368-69.901474-69.955369h-52.493474v-17.461894c0-26.192842 26.192842-52.439579 52.493474-52.439579h734.477474c26.246737 0 52.493474 26.246737 52.493473 52.439579V843.506526c0 26.246737-26.246737 52.493474-52.493473 52.493474M61.925053 231.424h104.986947c26.192842 0 34.977684 20.965053 34.977684 34.923789 0 14.012632-10.509474 35.031579-34.977684 35.031579H61.925053c-21.018947-0.053895-34.977684-19.294316-34.977685-35.031579 0-15.683368 8.730947-34.923789 34.977685-34.923789m0 244.843789h104.986947c26.192842 0 34.977684 21.018947 34.977684 34.977685 0 14.012632-10.509474 34.977684-34.977684 34.977684H61.925053c-21.018947 0-34.977684-19.240421-34.977685-34.977684 0-15.791158 8.730947-34.977684 34.977685-34.977685"  horiz-adv-x="1024" />

    
    <glyph glyph-name="xiaoxi" unicode="&#58990;" d="M512 384m-512 0a512 512 0 1 1 1024 0 512 512 0 1 1-1024 0ZM657.723077 334.769231a37.730462 37.730462 0 1 0 0 75.460923 37.730462 37.730462 0 0 0 0-75.460923m-134.537846 0a37.769846 37.769846 0 1 0 0 75.539692 37.769846 37.769846 0 0 0 0-75.539692m-134.577231 0a37.730462 37.730462 0 1 0 0 75.460923 37.730462 37.730462 0 0 0 0-75.460923M726.921846 541.538462H318.424615C294.833231 541.538462 275.692308 522.397538 275.692308 498.806154v-244.381539c0-23.591385 19.140923-42.732308 42.732307-42.732307h140.091077L506.564923 147.692308a20.086154 20.086154 0 0 1 32.216615 0l48.049231 64h140.091077c23.591385 0 42.732308 19.140923 42.732308 42.732307v244.381539c0 23.591385-19.140923 42.732308-42.732308 42.732308"  horiz-adv-x="1024" />

    
    <glyph glyph-name="wodexiaoxi" unicode="&#58991;" d="M1015.172414 388.413793c0-280.328828-227.257379-507.586207-507.586207-507.586207S0 108.084966 0 388.413793 227.257379 896 507.586207 896 1015.172414 668.742621 1015.172414 388.413793M723.473655 414.225655a77.665103 77.665103 0 1 0-155.330207 0 77.665103 77.665103 0 0 0 155.330207 0M329.904552 48.110345h-28.318897a49.646345 49.646345 0 0 0-49.611034 49.646345V347.665655h127.576276v-249.908965a49.646345 49.646345 0 0 0-49.646345-49.646345M446.128552 275.526621H215.852138a97.015172 97.015172 0 0 0-97.015172 97.015172v61.157517a97.015172 97.015172 0 0 0 97.015172 96.997518h230.276414v-255.170207zM619.096276 163.84l-177.964138 116.294621V526.124138l177.964138 116.276965a21.186207 21.186207 0 0 0 32.80331-17.743448v-443.074207a21.221517 21.221517 0 0 0-32.80331-17.761103M743.883034 319.028966a14.106483 14.106483 0 0 0-7.962482 25.794206 92.036414 92.036414 0 0 1 40.553931 76.023173 92.036414 92.036414 0 0 1-40.553931 76.040827 14.124138 14.124138 0 1 0 15.889655 23.340138 120.178759 120.178759 0 0 0 52.894896-99.380965 120.214069 120.214069 0 0 0-52.894896-99.380966 14.018207 14.018207 0 0 0-7.944828-2.454069M798.914207 278.722207a14.124138 14.124138 0 0 0-8.139035 25.670621c38.205793 26.835862 61.016276 70.338207 61.016276 116.453517 0 46.097655-22.810483 89.63531-61.016276 116.453517a14.124138 14.124138 0 0 0 16.242759 23.128276c45.726897-32.097103 73.021793-84.285793 73.021793-139.581793 0-55.296-27.294897-107.467034-73.021793-139.546483a14.000552 14.000552 0 0 0-8.103724-2.577655"  horiz-adv-x="1024" />

    
    <glyph glyph-name="shujuzhanshi" unicode="&#58992;" d="M1015.172414 388.413793c0-280.328828-227.257379-507.586207-507.586207-507.586207S0 108.084966 0 388.413793 227.257379 896 507.586207 896 1015.172414 668.742621 1015.172414 388.413793M736.414897 227.892966h-441.908966a14.865655 14.865655 0 0 0-14.88331 14.88331V564.012138h471.657931v-321.235862a14.865655 14.865655 0 0 0-14.865655-14.88331M810.266483 546.816h-591.977931a19.985655 19.985655 0 0 0-19.985655 19.985655v3.654621c0 11.034483 8.933517 19.985655 19.985655 19.985655h591.977931c11.034483 0 19.985655-8.951172 19.985655-19.985655v-3.654621c0-11.034483-8.951172-19.985655-19.985655-19.985655M300.808828 249.096828h429.267862V542.843586H300.808828v-293.746758z m435.606069-42.390069H294.488276a36.104828 36.104828 0 0 0-36.051862 36.069517V564.012138a21.186207 21.186207 0 0 0 21.186207 21.203862h471.657931a21.186207 21.186207 0 0 0 21.186207-21.203862v-321.235862a36.104828 36.104828 0 0 0-36.051862-36.069517zM342.580966 113.787586a21.186207 21.186207 0 0 0-18.343725 31.761655l51.800276 90.04138a21.186207 21.186207 0 0 0 36.722759-21.133242l-51.800276-90.041379a21.186207 21.186207 0 0 0-18.379034-10.628414M694.060138 113.787586a21.186207 21.186207 0 0 0-18.379035 10.628414l-51.800275 90.041379a21.186207 21.186207 0 0 0 36.722758 21.115587l51.800276-90.023725a21.186207 21.186207 0 0 0-18.361379-31.761655M680.536276 455.115034a36.263724 36.263724 0 1 0-72.527448 0 36.263724 36.263724 0 0 0 72.527448 0M608.026483 337.019586a36.263724 36.263724 0 1 0-72.527449 0 36.263724 36.263724 0 0 0 72.527449 0M478.525793 438.024828a36.246069 36.246069 0 1 0-72.509793 0 36.246069 36.246069 0 0 0 72.509793 0M407.569655 335.465931a36.281379 36.281379 0 1 0-72.562758 0.03531 36.281379 36.281379 0 0 0 72.562758-0.03531M574.128552 323.972414l-129.906759 101.340689-65.677241-94.861241-14.494897 10.045793 76.270345 110.256552 129.05931-100.687448 67.389793 109.673931 15.006897-9.233656z"  horiz-adv-x="1024" />

    
    <glyph glyph-name="wuliaocaigou" unicode="&#58993;" d="M733.297525 82.054682a44.73262 44.73262 0 1 0-89.438292 0V327.67988a44.73262 44.73262 0 0 0 33.145254 43.223568h23.147784a44.73262 44.73262 0 0 0 33.145254-43.223568v-245.625198z m-192.565844 0a44.73262 44.73262 0 1 0-89.46524 0V327.67988a44.73262 44.73262 0 0 0 33.199149 43.223568h23.093889a44.73262 44.73262 0 0 0 33.172202-43.223568v-245.625198z m-186.47574-1.536a44.73262 44.73262 0 0 0-89.492187 0V326.197775a44.73262 44.73262 0 0 0 89.492187 0v-245.679093zM869.058331 508.900885h-40.717463c1.293473-4.203788 1.994105-8.596208 2.048-12.961681a44.73262 44.73262 0 0 0-44.975146-45.621883c-12.395786 0-24.117888 4.90442-32.98357 13.770102L707.589742 508.900885H289.016379L244.202917 464.060476c-8.865682-8.838735-20.587784-13.743154-32.98357-13.743155A44.840409 44.840409 0 0 0 166.244201 495.939204C166.298095 500.304677 166.971779 504.697097 168.265253 508.900885H123.04758a68.985245 68.985245 0 0 1-4.473262-137.835753c8.353682-77.985664 36.028622-222.342678 51.253882-297.849185 14.470733-71.733876 62.221457-132.284597 138.994489-132.284597h374.137165c76.746085 0 125.116599 60.442931 138.99449 132.284597 14.524628 75.290928 42.873252 219.809626 51.226934 297.822237A69.012192 69.012192 0 0 1 869.058331 508.900885zM506.589374 772.311342A22.743573 22.743573 0 1 0 506.508532 817.798488a22.743573 22.743573 0 0 0 0.080842-45.487146m308.358656-235.250464L529.413789 822.568171l-0.431158 0.377263c-0.107789 0.134737-0.269474 0.269474-0.350315 0.40421-12.15326 12.126313-32.094307 11.856839-44.597883-0.646736L198.365455 537.060878c-12.476628-12.503576-12.773049-32.498518-0.646736-44.624831 12.126313-12.126313 32.06736-11.856839 44.597883 0.646737l264.326667 264.29972 264.353614-264.326667c12.476628-12.476628 32.444623-12.773049 44.570936-0.61979 12.126313 12.126313 11.856839 32.094307-0.619789 44.597883"  horiz-adv-x="1024" />

    
    <glyph glyph-name="xunjianpingtai" unicode="&#58994;" d="M525.850506-123.742451c-137.211631 0-229.422589 53.273251-229.422589 132.603777C296.427917 88.164906 388.638875 141.465104 525.850506 141.465104c137.211631 0 229.395643-53.300198 229.395643-132.603778 0-79.330527-92.184012-132.603778-229.395643-132.603777M863.436388 699.742906a37.455649 37.455649 0 0 1-13.176843 22.742855 377.843969 377.843969 0 0 1-112.232216 111.42382 39.880835 39.880835 0 0 1-12.610967 5.739607A398.404156 398.404156 0 0 1 516.01503 895.940448C306.721484 897.126095 136.015341 728.44094 134.748855 519.147393a361.810795 361.810795 0 0 1 100.914681-243.865919c1.886256-2.991063 4.149763-5.766553 6.682735-8.245632l255.291239-248.2582c4.338388-5.874339 10.320513-10.320513 17.164927-12.826539a40.177247 40.177247 0 0 1 44.86594 7.868381c3.314421 2.964116 249.066596 261.219472 249.066595 261.219472a46.886928 46.886928 0 0 1 5.847393 7.545023 359.574235 359.574235 0 0 1 94.36668 248.392933 354.184933 354.184933 0 0 1-45.512657 168.765994M544.847796 604.217527a95.714005 95.714005 0 0 0 95.660112-95.660112 95.660112 95.660112 0 1 0-95.660112 95.660112m0-232.036401A167.607295 167.607295 0 1 1 544.874743 707.341822a167.607295 167.607295 0 0 1-0.026947-335.214589M536.602164 442.538464a51.602567 51.602567 0 0 1 51.575621 51.575621 51.548674 51.548674 0 1 1-103.124295 0c0-28.482461 23.066213-51.575621 51.548674-51.575621M680.200118 396.998862c-2.074881 4.904265-4.392281 9.539065-6.467163 13.931346a189.272289 189.272289 0 0 0-242.329968 0c-7.976167-20.102097-17.272713-40.23114-25.760863-60.333237a20.290722 20.290722 0 0 1 6.440215-23.470411c10.185781-8.892348 23.308731-13.769667 36.83588-13.66188h211.934304c12.287609-0.053893 24.251859 3.961137 34.033443 11.344481a19.590113 19.590113 0 0 1 5.389302 26.811777l-20.07515 45.377924z"  horiz-adv-x="1024" />

    
    <glyph glyph-name="daolujiankong" unicode="&#58995;" d="M691.416387 152.252632a7.221895 7.221895 0 0 0-4.931368-2.883369 7.221895 7.221895 0 0 0-5.497263 1.509053l-53.840842 42.630737a7.841684 7.841684 0 0 0-1.401263 10.725052l158.234947 209.812211a7.329684 7.329684 0 0 0 10.428631 1.401263l53.894737-42.630737a7.787789 7.787789 0 0 0 1.347369-10.752L691.38944 152.252632zM991.529229 300.112842L785.786072 27.243789a12.261053 12.261053 0 0 0-10.590316-4.958315 12.314947 12.314947 0 0 0-9.889684 6.278737l-54.433685 94.666105a12.907789 12.907789 0 0 0 0.835369 14.22821l157.022316 208.303158a12.126316 12.126316 0 0 0 13.20421 4.419369l103.208421-30.073264a12.853895 12.853895 0 0 0 6.386526-19.994947M580.986072 200.623158a22.689684 22.689684 0 0 0-32.336843-4.230737l-150.797473 119.322947v-221.830736a33.576421 33.576421 0 0 0-33.145263-33.953685H99.786914v-66.263579a35.031579 35.031579 0 0 0-34.546527-35.328H34.601229A35.085474 35.085474 0 0 0 0.000808-6.332632V194.829474a35.166316 35.166316 0 0 0 34.600421 35.408842h30.423579a35.085474 35.085474 0 0 0 34.492632-35.408842v-67.152842h232.124632v240.316631l-219.001264 173.271579a24.010105 24.010105 0 0 0-4.122947 33.118316l194.829474 258.533053a22.716632 22.716632 0 0 0 32.336842 4.257684l436.277895-345.061053a24.010105 24.010105 0 0 0 4.122947-33.118316l-195.098947-258.371368z"  horiz-adv-x="1024" />

    
    <glyph glyph-name="zhilianganquan" unicode="&#58996;" d="M896.700632 604.267789c-2.56 80.572632-11.937684 134.251789-11.937685 135.545264a14.497684 14.497684 0 0 1-5.52421 10.24c-3.018105 1.697684-5.551158 2.991158-8.946526 2.991158-0.889263 0-1.724632 0-3.018106-0.431158-0.404211 0-41.337263-13.662316-94.585263-13.662316-30.72 0-65.670737 11.102316-84.857263 17.057684a577.643789 577.643789 0 0 0-122.314105 54.137263c-27.297684 16.195368-41.337263 28.133053-41.768421 28.564211A14.848 14.848 0 0 1 514.344421 842.105263a14.309053 14.309053 0 0 1-9.835789-3.826526s-14.470737-12.341895-41.768421-28.564211a560.747789 560.747789 0 0 0-121.882948-54.137263c-18.755368-5.524211-51.146105-17.893053-81.839158-17.893052-53.301895 0-96.336842 14.497684-96.741052 14.497684-0.862316 0-1.724632 0.431158-2.964211 0.431158a13.312 13.312 0 0 1-8.973474-2.991158 12.503579 12.503579 0 0 1-5.551157-10.213053c0-0.458105-7.68-54.999579-9.377685-135.57221-1.697684-74.159158-1.293474-174.322526 12.39579-273.650527 5.928421-46.026105 31.070316-87.363368 70.278737-133.820631 31.124211-36.648421 72.030316-72.892632 122.341052-108.705685 84.830316-59.661474 165.807158-95.474526 169.229474-96.768a13.797053 13.797053 0 0 1 5.955368-1.266526 15.171368 15.171368 0 0 1 5.955369 1.266526c3.422316 1.293474 82.728421 37.106526 167.962947 96.768 50.283789 35.408842 91.189895 72.057263 122.341053 108.705685 39.612632 46.457263 64.323368 91.216842 71.168 137.674105 6.386526 54.999579 16.599579 135.545263 13.635368 270.22821M626.849684 332.530526l-28.56421 28.564211a29.669053 29.669053 0 0 1-21.719579 9.350737c-14.093474-3.395368-22.150737-11.075368-23.875369-23.875369-1.293474-8.057263 2.56-14.901895 11.937685-21.719579l35.813052-33.253052c-22.177684-23.848421-50.714947-30.666105-86.123789-30.666106-86.096842 3.395368-137.242947 55.834947-137.242948 169.202527 0 109.541053 51.146105 170.091789 137.242948 174.753684 83.968-4.661895 137.269895-63.946105 137.269894-174.753684 0-37.079579-11.937684-69.039158-24.737684-97.603369m85.692632-84.399158l-45.190737 45.621895a263.410526 263.410526 0 0 1 37.941895 136.81179c0 141.931789-72.461474 222.908632-190.976 222.908631C394.132211 653.473684 323.368421 571.203368 323.368421 430.565053c0-138.536421 74.590316-218.246737 190.949053-218.246737 49.044211 0 89.950316 14.497684 121.936842 43.061895l42.603789-40.933053c4.688842-3.395368 11.102316-5.524211 19.186527-7.221895 14.066526 1.239579 22.177684 8.084211 23.848421 19.186526 0 6.386526-3.395368 13.608421-9.350737 21.719579"  horiz-adv-x="1024" />

    
    <glyph glyph-name="chidaorenshu" unicode="&#58997;" d="M512 384m-512 0a512 512 0 1 1 1024 0 512 512 0 1 1-1024 0ZM295.1424 141.1328A64.7168 64.7168 0 0 0 230.4 205.5424V548.9664c0 5.8368 1.024 12.032 2.3808 17.8944 5.8624 22.7584 30.336 47.5392 69.248 47.5392h17.5616a17.92 17.92 0 0 0 13.1072-5.1712 18.9184 18.9184 0 0 0 5.504-13.1072 18.7904 18.7904 0 0 0-5.504-13.056 18.4832 18.4832 0 0 0-13.1072-5.1712h-17.8944c-19.6608 0-33.4336-11.6992-33.4336-28.5952v-343.424c0-14.464 12.0576-26.88 26.1888-26.88h454.3232c14.464 0 26.1632 12.0832 26.1632 26.88V549.2992c-1.024 27.2128-27.904 27.2128-42.3424 27.2128h-8.6272c-10.3168 0-18.9184 8.2688-18.9184 18.2528 0 4.8128 2.048 9.6512 5.504 13.0816a18.432 18.432 0 0 0 13.0816 5.1968h17.92c10.6752 0 23.424-1.0496 36.8384-7.936 21.0176-11.0336 33.4336-30.6688 34.4576-54.784v-0.3328l1.3568-344.448c-0.3328-35.1232-29.6192-64.0512-64.7424-64.4096H295.1424zM468.096 298.1888a14.72 14.72 0 0 0-11.0336 4.48 16.384 16.384 0 0 0-4.8128 11.6992c0 4.48 1.7152 8.6272 4.8128 11.7248l49.9712 49.92v54.4256a16.128 16.128 0 1 0 32.3584 0v-61.312a15.872 15.872 0 0 0-6.8864-13.4144l-52.7104-52.7104a16.384 16.384 0 0 0-11.6992-4.8128z m-13.952 279.68c-10.3424 0-18.944 8.2688-18.944 18.2528 0 4.8128 2.048 9.6512 5.504 13.0816a18.432 18.432 0 0 0 13.0816 5.1968h137.088c5.1712 0 9.6512-1.7408 13.44-5.1968a18.8416 18.8416 0 0 0 5.504-13.0816 18.8928 18.8928 0 0 0-5.504-13.0816 18.432 18.432 0 0 0-13.0816-5.1712H454.144zM521.088 453.9904a104.6528 104.6528 0 0 1-104.704-104.704c0-57.8816 46.848-104.704 104.704-104.704a104.6528 104.6528 0 0 1 104.7296 104.704c0 57.8816-46.848 104.704-104.7296 104.704m0-241.792A137.216 137.216 0 0 0 384 349.2864C384 424.704 445.6704 486.4 521.088 486.4c75.4432 0 137.088-61.696 137.088-137.1136a137.216 137.216 0 0 0-137.088-137.088M650.1376 509.1072a18.8672 18.8672 0 0 0-18.6112 18.6112V621.056c0 4.8384 2.0736 9.6512 5.8624 13.44A18.9184 18.9184 0 0 0 650.496 640h0.3072c5.1968 0 10.0096-2.0736 13.7728-5.504a18.7648 18.7648 0 0 0 5.5296-13.0816v-93.0048a18.7136 18.7136 0 0 0-5.5296-13.0816 20.1472 20.1472 0 0 0-13.4144-5.5296c-0.6656-0.6912-1.024-0.6912-1.024-0.6912z m-273.152 0a19.5328 19.5328 0 0 0-13.7728 6.5536l-0.3584 0.3584a17.152 17.152 0 0 0-4.4544 11.6992V621.056a18.176 18.176 0 0 0 7.552 14.8224 18.8672 18.8672 0 0 0 11.392 3.7888c1.7152 0 3.4304-0.3584 5.1456-0.6912a17.5616 17.5616 0 0 0 8.96-4.8128 18.9184 18.9184 0 0 0 5.504-13.1072v-93.3376a18.8928 18.8928 0 0 0-5.504-13.0816 20.4288 20.4288 0 0 0-13.7728-5.5296h-0.6912z"  horiz-adv-x="1024" />

    
    <glyph glyph-name="kuanggongrenshu" unicode="&#58998;" d="M512 384m-512 0a512 512 0 1 1 1024 0 512 512 0 1 1-1024 0ZM749.1072 211.0464c0-14.4384-12.1856-26.624-26.5472-26.624H294.6816a26.9312 26.9312 0 0 0-26.5728 26.624V475.6224h480.9984v-264.576zM720.7424 665.6H673.536v-37.7088h49.024a26.88 26.88 0 0 0 26.5472-26.624v-87.808H268.1088v87.7568c0 14.464 12.1856 26.5984 26.5728 26.5984h49.3056V665.5488h-47.1552A66.688 66.688 0 0 1 230.4 598.9888v-386.0224c0-36.608 28.7744-66.5088 65.3568-66.5088h424.9856a66.688 66.688 0 0 1 66.4064 66.5088V598.9888A66.6368 66.6368 0 0 1 720.7424 665.6zM435.2 627.6864h127.0016V665.6H435.2zM613.888 552.4224c13.8752 0 25.8816 11.2384 25.8816 25.1392V691.6352c0 13.8752-12.0576 25.1648-25.8816 25.1648a25.1392 25.1392 0 0 1-25.088-25.1648v-114.1504c0-13.824 11.2128-25.0624 25.088-25.0624M383.4624 552.4224c13.8752 0 25.8816 11.2384 25.8816 25.1392V691.6352c0 13.8752-12.0576 25.1648-25.8816 25.1648a25.1648 25.1648 0 0 1-25.0624-25.1648v-114.1504c0-13.824 11.264-25.0624 25.0624-25.0624M608.9472 216.32a19.328 19.328 0 0 0-13.7984 5.7344l-76.1088 76.0832-76.0832-76.0832a19.328 19.328 0 0 0-13.824-5.7344 19.2256 19.2256 0 0 0-13.7984 5.7344 19.2256 19.2256 0 0 0-5.7344 13.7984c0 5.2224 2.0224 10.112 5.7344 13.7984l76.0832 76.0832-76.0832 76.1344a19.5072 19.5072 0 1 0 27.6224 27.5968l76.0832-76.0832 76.1088 76.0832a19.2256 19.2256 0 0 0 13.7984 5.7344c5.2224 0 10.1376-2.0224 13.7984-5.7344a19.2256 19.2256 0 0 0 5.7344-13.7984 19.2768 19.2768 0 0 0-5.7344-13.7984l-76.1088-76.1344 76.1088-76.0832a19.2768 19.2768 0 0 0 5.7344-13.7984 19.2256 19.2256 0 0 0-5.7344-13.7984 19.2256 19.2256 0 0 0-13.7984-5.7344"  horiz-adv-x="1024" />

    
    <glyph glyph-name="qingjiarenshu" unicode="&#58999;" d="M512 384m-512 0a512 512 0 1 1 1024 0 512 512 0 1 1-1024 0ZM749.1072 159.8464c0-14.4384-12.1856-26.624-26.5472-26.624H294.6816a26.9312 26.9312 0 0 0-26.5728 26.624V424.4224h480.9984v-264.576zM720.7424 614.4H673.536v-37.7088h49.024a26.88 26.88 0 0 0 26.5472-26.624v-87.808H268.1088v87.7568c0 14.464 12.1856 26.624 26.5728 26.624h49.3056v37.7088h-47.1552A66.688 66.688 0 0 1 230.4 547.7888v-386.0224c0-36.608 28.7744-66.5088 65.3568-66.5088h424.9856a66.688 66.688 0 0 1 66.4064 66.5088V547.7888A66.6368 66.6368 0 0 1 720.7424 614.4zM435.2 576.4864h127.0016V614.4H435.2zM613.888 501.2224c13.8752 0 25.8816 11.264 25.8816 25.1392V640.4352c0 13.8752-12.0576 25.1648-25.8816 25.1648a25.1392 25.1392 0 0 1-25.088-25.1648v-114.1504a25.088 25.088 0 0 1 25.088-25.0624M383.4624 501.2224c13.8752 0 25.8816 11.264 25.8816 25.1392V640.4352c0 13.8752-12.0576 25.1648-25.8816 25.1648a25.1648 25.1648 0 0 1-25.0624-25.1648v-114.1504c0-13.7984 11.264-25.0624 25.0624-25.0624M411.8016 409.5488c-9.216 0.64-15.4624-4.1984-17.152-14.1056-7.168-37.7344-17.92-64.3584-32.512-79.744-5.9648-9.984-3.7888-17.4848-0.4096-22.6816a13.312 13.312 0 0 1 9.3184-4.1984c3.8144 0.1024 7.6032 2.2272 11.264 6.3488a176.64 176.64 0 0 1 4.3008 5.0432v-115.4816c0-8.6528 4.4032-13.9264 13.2352-14.848 8.4224 0.8704 13.5424 5.632 14.464 13.824v174.0288c1.1008 2.2528 2.6112 7.0656 4.9664 19.5584 0.5888 5.6064 1.536 9.984 2.9696 13.7984 2.2272 13.5424-5.2736 17.3312-10.4448 18.432M572.8256 323.84l-48.4864-0.0768c-7.0912-0.8704-11.4688-5.2736-12.3392-13.2352 0.8704-7.8592 5.5296-12.416 12.8256-12.416l51.6608 0.0256c1.3056-0.128 2.5856-0.1792 3.8144-0.1792 6.6048 0 11.6992 1.792 15.232 5.2736 4.1728 4.1472 5.888 10.5728 5.1456 18.7392l-0.0256 40.7808c0.384 7.3216-1.3568 12.8512-5.1712 16.4864-3.9936 3.7888-10.0096 5.2992-17.664 4.608H525.824l-0.4352-0.0512c-7.7568-0.8704-12.5184-5.2736-13.3888-13.2608 0.8704-7.8592 5.888-12.416 13.824-12.416l46.3616 0.0768c1.536-0.256 2.7904-0.768 2.7904-4.224v-26.0096c0-4.1472-1.2032-4.1472-2.1504-4.1472M460.8768 356.7616c-0.1024 0.64 0 0.9216 0 0.9216 0.0256 0.0512 0.7168 0.5888 3.2256 0.5888l23.4752 0.0512c1.92 0.1792 2.56-0.1792 2.56-0.1792s0.384-0.5632 0.1024-3.0208v-26.0096c0-4.1472-1.1776-4.1472-2.1504-4.1472h-27.136V356.096l-0.0768 0.64z m61.0304-144.1792c-0.8704 7.04-4.864 11.392-11.776 12.3904h-49.152v25.2928h45.1328c7.2448 0 11.904 4.5312 12.8 13.312-0.896 7.0912-5.248 11.4688-12.8 12.3904h-45.1584v23.296h32.768c7.168-0.7168 12.6976 0.7168 16.5632 4.352 4.1472 3.8912 6.0416 10.1888 5.6576 18.4832v39.808c0.384 7.424-1.3312 13.1328-5.12 16.896-3.8144 3.8144-9.5744 5.5296-16.7168 5.12h-37.888c-6.7072 0.3072-12.2368-1.28-15.872-4.8896-3.7632-3.7632-5.504-9.5488-5.0944-16.9216v-197.9904c0-8.192 4.7104-12.8512 12.8512-12.8512 7.2448 0 11.9296 4.5056 12.8512 12.8512v35.1488h49.152c3.1232 0 10.5472 1.2288 11.8016 13.312zM576.6144 254.8992c-3.0464-9.728-8.8064-20.224-17.5104-31.7696a510.5408 510.5408 0 0 1-6.6048 7.7568 176.128 176.128 0 0 0-11.0848 19.1232 15.616 15.616 0 0 1-5.4784 4.8896h40.704z m36.096-76.5696c-11.9808 4.7616-23.2704 12.7744-33.6128 23.8336 0.7168 1.024 1.792 2.4576 3.3792 4.48 14.1568 21.5552 23.0912 39.424 26.624 53.4272 1.024 5.9136 0 10.7264-3.072 14.4128-4.0448 4.7616-11.136 7.1168-21.7344 7.1168h-57.0112l-0.4096-0.0256c-8.0128-0.896-12.4416-5.8368-12.416-14.2592 0.7168-6.4512 4.1984-10.6496 9.7792-11.9552l-0.9984-0.3584c-7.0656-4.4288-9.0112-10.7008-5.4272-16.8448 7.3728-16.0256 14.3616-27.9552 21.248-36.2496-13.3888-13.3888-27.4688-22.2976-42.0608-26.5472-4.8384-1.7408-8.064-4.352-9.6-7.808-1.4592-3.2512-1.3568-7.04 0.5376-11.648 2.944-5.3248 7.424-8.1152 13.1072-8.1152a24.064 24.064 0 0 1 8.0896 1.5872c20.6848 11.264 37.504 21.8368 50.0736 31.4368 8.6528-7.0912 21.1456-16.0512 38.528-27.5968 7.6288-3.3536 14.2848-1.8432 18.9696 4.8384 5.632 11.2384 0.4096 17.2544-3.9936 20.2752z"  horiz-adv-x="1024" />

    
    <glyph glyph-name="shijichuqin" unicode="&#59000;" d="M512 384m-512 0a512 512 0 1 1 1024 0 512 512 0 1 1-1024 0ZM605.9008 542.5664a17.152 17.152 0 0 0-17.1008 17.1008V648.5248a17.1008 17.1008 0 0 0 34.2016 0v-88.8576a17.152 17.152 0 0 0-17.1008-17.1008M375.4752 542.5664a17.1008 17.1008 0 0 0-17.0752 17.1008V648.5248a17.0752 17.0752 0 0 0 34.176 0v-88.8576a17.152 17.152 0 0 0-17.1008-17.1008M264.576 200.9088a27.392 27.392 0 0 1 27.3408-27.3408h422.0416c15.0784 0 27.3152 12.2624 27.3152 27.3408V498.0992H264.576v-297.1904z m5.12-61.5168A39.3472 39.3472 0 0 0 230.4 178.688V600.704C230.4 622.3872 248.0384 640 269.696 640h54.4256a17.0752 17.0752 0 1 0-0.0256-34.176h-32.1792c-15.0784 0-27.3408-12.2368-27.3408-27.3152v-46.2336h476.6976v46.2336c0 15.0784-12.2368 27.3152-27.3152 27.3152h-32.2048A17.1264 17.1264 0 0 0 681.728 640h54.4256c21.6832 0 39.296-17.6128 39.296-39.296V178.688c0-21.6832-17.6128-39.296-39.296-39.296H269.696zM452.3008 605.824a17.1008 17.1008 0 0 0 0 34.176h90.0096l1.9456-0.1536a16.4352 16.4352 0 0 0 7.6544-2.1248 17.1264 17.1264 0 0 0 0-29.6192 16.64 16.64 0 0 0-7.68-2.1248l-2.8672-0.1536h-89.0624zM467.4304 216.6784a17.536 17.536 0 0 0-12.8 5.0688l-91.0592 91.0848a16.3328 16.3328 0 0 0 0 23.8336 16.8448 16.8448 0 0 0 11.9296 5.1968c4.352 0 8.6016-1.8432 11.9296-5.1968l79.1552-79.104 146.8928 146.8672A16.768 16.768 0 0 0 625.408 409.6c4.352 0 8.6016-1.8176 11.9296-5.1712a16.384 16.384 0 0 0 0-23.8592l-157.7216-158.8224a16.7424 16.7424 0 0 0-11.8784-5.0688h-0.3072z"  horiz-adv-x="1024" />

    
    <glyph glyph-name="yingchuqin" unicode="&#59001;" d="M512 384m-512 0a512 512 0 1 1 1024 0 512 512 0 1 1-1024 0ZM394.2656 526.848c13.8752 0 25.8816 11.2384 25.8816 25.1136V666.0608c0 13.8752-12.0576 25.1392-25.8816 25.1392-13.824 0-25.088-11.264-25.088-25.1392v-114.1504c0-13.824 11.264-25.0624 25.088-25.0624z m253.2096-202.7776c21.0432 0 38.0416 17.0752 38.0416 38.1696a38.0672 38.0672 0 0 1-76.1088 0 38.144 38.144 0 0 1 38.0672-38.1696z m-139.1872-139.4432c21.0432 0 38.0416 17.0496 38.0416 38.144a38.144 38.144 0 0 1-38.0416 38.1696c-21.0432 0-38.0416-17.0752-38.0416-38.1696a38.016 38.016 0 0 1 38.0416-38.144z m-140.16 0a38.144 38.144 0 1 1 0 76.3136c-21.0176 0-38.0416-17.0752-38.0416-38.1696 0-21.0944 17.0752-38.144 38.0416-38.144z m140.16 139.4432c21.0432 0 38.0416 17.0752 38.0416 38.1696a38.0672 38.0672 0 0 1-76.0832 0 38.0416 38.0416 0 0 1 38.0416-38.1696z m-139.4432 0a38.144 38.144 0 1 1 0 76.3392c-21.0432 0-38.0416-17.0496-38.0416-38.1696 0-21.0944 17.0496-38.1696 38.0416-38.1696z m380.2624-150.6816c0-14.4128-12.16-26.5984-26.5728-26.5984H294.656a26.88 26.88 0 0 0-26.5472 26.5984V437.9904h480.9984v-264.6016z m-28.3904 454.5536h-47.2064v-37.6832h49.024c14.464 0 26.5728-12.1856 26.5728-26.624v-87.808H268.1088v87.7568c0 14.4384 12.16 26.624 26.5472 26.624h49.3312v37.6832h-47.1552A66.688 66.688 0 0 1 230.4 561.3568V175.36c0-36.6336 28.7744-66.56 65.3312-66.56h424.9856a66.7392 66.7392 0 0 1 66.4576 66.56V561.3568a66.6624 66.6624 0 0 1-66.4576 66.5856z m-275.6096-37.9136h127.0016v37.9136h-127.0016v-37.9136z m177.1008-63.1808c13.8752 0 25.8816 11.2384 25.8816 25.1136V666.0608c0 13.8752-12.0576 25.1392-25.8816 25.1392a25.088 25.088 0 0 1-25.0624-25.1392v-114.1504c0-13.824 11.1872-25.0624 25.0624-25.0624z"  horiz-adv-x="1024" />

    
    <glyph glyph-name="zaotuirenshu" unicode="&#59002;" d="M512 384m-512 0a512 512 0 1 1 1024 0 512 512 0 1 1-1024 0ZM434.3296 577.024a17.3824 17.3824 0 0 0-10.0096-16.4096 16.896 16.896 0 0 0-18.2016 1.4336 16.7424 16.7424 0 0 0-7.5008 14.1568c0 24.0128-0.1024 48.0512 0.1024 71.9872a17.5104 17.5104 0 0 0 5.2224 12.5184 17.408 17.408 0 0 0 12.6208 4.864 17.6896 17.6896 0 0 0 17.7152-17.92c0.1536-11.8784 0-23.68 0-35.4816 0.0512-11.6992 0.1024-23.3984 0.0512-35.1488z m213.8112 34.9184v-34.3808c0-11.0336-7.4752-18.7904-17.9712-18.7648-10.1888 0-17.5616 7.8592-17.5616 18.688 0 23.168-0.0768 46.3104 0 69.504 0 10.8288 7.3984 18.5344 17.6896 18.6112 10.2656 0 17.792-7.7824 17.8432-18.5344v-35.1232z m-124.8768 17.9968h34.7904c10.88 0 18.8928-7.7568 18.816-17.9456-0.1536-10.0864-8.1664-17.5616-18.8928-17.6128-23.5264 0-47.0528-0.0768-70.5792 0.0512a17.8432 17.8432 0 1 0 1.8688 35.5072h33.9968z m-231.6288-152.832v-290.432c0-13.2096 7.0656-20.224 20.3776-20.224h422.8096c13.2096 0 20.3264 7.1168 20.3264 20.3264V477.1328l-463.5136-0.0256z m463.5136 36.0448v61.184c0 12.8-7.1168 20.0192-19.8912 20.0448-11.3152 0-22.656-0.1024-33.9968 0.0512a17.5872 17.5872 0 0 0-17.408 16.3584 17.5872 17.5872 0 0 0 19.0464 19.1488h33.664c30.8736-0.1792 54.1696-23.5008 54.1696-54.3232v-390.3488c0-30.976-23.5264-54.4-54.5792-54.4H310.656c-31.3344 0-54.656 23.296-54.656 54.656v389.888c0 28.16 18.7648 50.0992 46.6176 54.016 6.5792 0.9984 13.2864 0.4352 19.9424 0.512 7.424 0.0512 14.7968 0.128 22.1696 0 10.3424-0.1024 17.9712-7.6288 18.048-17.5616a17.5616 17.5616 0 0 0-17.9968-17.9456c-11.5968-0.128-23.168 0-34.7648-0.0768-10.6496-0.0512-18.3552-7.4496-18.3552-17.9968-0.0768-28.7232 0-31.8208 0-60.544 0-0.8192 0.1792-1.6896 0.256-2.6624h463.232zM515.3792 334.8992v-53.376c13.4144 2.4576 26.7008 5.632 39.7568 9.5744l5.7344-22.4768c-24.0128-6.0928-48.3072-11.0336-72.7808-14.8736l-5.5296 21.0432c5.7856 2.176 8.6272 5.5296 8.6272 9.8304v145.0752h119.4752v-94.7968h-95.2832z m0 57.7024H586.24v15.0784h-70.8608v-15.104z m0-35.6608H586.24v15.0528h-70.8608v-15.0528z m29.44-25.856c11.9808-6.7328 23.2448-13.44 33.7408-20.608a170.496 170.496 0 0 1 19.1744 20.5824l17.92-13.8496c-6.1952-7.1936-12.6464-13.9264-19.1232-19.6608 10.496-7.8848 20.352-16.0256 29.44-24.6528l-15.5648-18.6368c-20.8128 21.2736-47.3856 41.1392-79.7184 59.776l14.1312 17.024z m22.9888-111.5392c-13.1584 0-27.5456 0.1792-42.8288 0.4352-12.8 0-25.6 1.3824-38.0928 4.096-9.5488 2.8416-17.92 8.3712-25.1136 16.512-3.3536 4.0704-6.2208 5.9904-8.8832 5.9904-4.7872 0-12.928-10.5472-24.8576-32.0768l-18.432 16.9984c11.9808 19.1488 22.4768 31.3088 32.0512 36.608v65.5872h-31.5904v22.9888h54.784v-90.9568l2.6624-2.6368c5.504-6.2208 11.008-11.008 16.512-14.1312 6.9376-3.584 17.4848-5.504 31.616-5.9904 13.8496-0.2304 30.1568-0.512 48.5888-0.512 11.9552 0 23.9104 0.2816 36.352 0.2816 12.4672 0.4864 21.7856 0.9472 28.4928 1.4336l-6.2208-24.6272h-55.04zM431.8208 435.2c15.8208-12.4672 29.2352-24.8832 40.2432-37.376l-17.9712-17.664c-9.088 11.9552-22.272 24.8832-39.4752 38.7584l17.2032 16.2816z"  horiz-adv-x="1024" />

    
    <glyph glyph-name="quekarenshu" unicode="&#59003;" d="M512 384m-512 0a512 512 0 1 1 1024 0 512 512 0 1 1-1024 0ZM761.5744 239.5648l58.9824 58.9824a20.096 20.096 0 0 1-28.3904 28.3648l-58.9568-58.9568-58.9824 58.9824a20.0448 20.0448 0 1 1-28.3648-28.3648l58.9824-58.9824-58.9824-58.9824a20.0704 20.0704 0 0 1 28.3648-28.3392l58.9824 58.9824 58.9568-58.9824a20.1216 20.1216 0 0 1 28.3904 0 20.0704 20.0704 0 0 1 0 28.3392l-58.9824 58.9824zM365.5168 481.2288a37.248 37.248 0 0 0 0-74.4448 37.248 37.248 0 0 0 0 74.4448m-109.4144-172.2112a15.5136 15.5136 0 0 1 15.3344-17.1776 15.104 15.104 0 0 1 15.1808 13.4656 79.1296 79.1296 0 0 0 78.8992 70.7072 79.1552 79.1552 0 0 0 78.9248-70.7328 15.1552 15.1552 0 0 1 15.1808-13.5168 15.5648 15.5648 0 0 1 15.3344 17.2032 109.8752 109.8752 0 0 1-61.5424 86.784 67.584 67.584 0 0 1 20.1216 48.256A68.096 68.096 0 0 1 365.5168 512a68.096 68.096 0 0 1-67.9936-67.9936c0-18.3296 7.2448-35.5072 20.096-48.1792a109.9008 109.9008 0 0 1-61.5168-86.8096M681.5488 504.6272a7.3984 7.3984 0 0 1-7.3984 7.3728h-154.752a7.3728 7.3728 0 0 1-7.3984-7.3728v-19.8912c0-4.096 3.3024-7.3984 7.3984-7.3984h154.752a7.424 7.424 0 0 1 7.3984 7.3984v19.8912zM519.296 435.2a7.2704 7.2704 0 0 1-7.296-7.296v-20.0704c0-4.0448 3.2512-7.296 7.296-7.296h154.9568a7.296 7.296 0 0 1 7.296 7.296v20.0704a7.296 7.296 0 0 1-7.296 7.296h-154.9568zM589.824 358.4h-70.528a7.296 7.296 0 0 1-7.296-7.296v-20.096c0-4.0448 3.2512-7.2704 7.296-7.2704h70.528a7.2704 7.2704 0 0 1 7.296 7.2704v20.096A7.3216 7.3216 0 0 1 589.824 358.4M582.528 228.6592H265.4464a24.8064 24.8064 0 0 0-24.7808 24.7808V553.7536a24.832 24.832 0 0 0 24.7808 24.8064h445.7984a24.832 24.832 0 0 0 24.8064-24.8064v-184.6272a17.92 17.92 0 0 1 35.84 0v184.6272A60.672 60.672 0 0 1 711.2448 614.4H265.4464A60.6976 60.6976 0 0 1 204.8 553.7536V253.44a60.6976 60.6976 0 0 1 60.6464-60.6208h317.0816a17.92 17.92 0 1 1 0 35.84"  horiz-adv-x="1024" />

    
    <glyph glyph-name="nav_icon_n" unicode="&#58886;" d="M512 760.832l299.008-262.144 6.144-6.144L778.24 19.456v-4.096c0-22.528-18.432-40.96-40.96-40.96H286.72c-22.528 0-40.96 18.432-40.96 40.96v4.096l-40.96 477.184 2.048 4.096L512 760.832M512 814.08L176.128 527.36 163.84 506.88l40.96-491.52c0-45.056 36.864-81.92 81.92-81.92h450.56c45.056 0 81.92 36.864 81.92 81.92l40.96 491.52-20.48 20.48L512 814.08zM686.08 107.52h-40.96v102.4c0 73.728-59.392 133.12-133.12 133.12s-133.12-59.392-133.12-133.12v-102.4h-40.96v102.4c0 96.256 77.824 174.08 174.08 174.08s174.08-77.824 174.08-174.08v-102.4zM73.728 465.92L512 834.56l26.624-30.72-438.272-368.64L73.728 465.92zM512 834.56l438.272-368.64-26.624-30.72-438.272 368.64L512 834.56z"  horiz-adv-x="1024" />

    
    <glyph glyph-name="nav_icon_n1" unicode="&#58887;" d="M184.32 650.24V752.64c0 22.528 18.432 40.96 40.96 40.96h614.4c36.864 0 40.96-40.96 40.96-40.96v-737.28c0-22.528-18.432-40.96-40.96-40.96H225.28c-22.528 0-40.96 18.432-40.96 40.96v163.84H143.36v-163.84c0-45.056 36.864-81.92 81.92-81.92h614.4c45.056 0 81.92 36.864 81.92 81.92V752.64c0 45.056-36.864 81.92-81.92 81.92H225.28C180.224 834.56 143.36 797.696 143.36 752.64v-143.36h40.96v40.96-40.96M532.48 609.28c67.584 0 122.88-55.296 122.88-122.88s-55.296-122.88-122.88-122.88-122.88 55.296-122.88 122.88 55.296 122.88 122.88 122.88m0 40.96c-90.112 0-163.84-73.728-163.84-163.84s73.728-163.84 163.84-163.84 163.84 73.728 163.84 163.84-73.728 163.84-163.84 163.84zM323.584 146.432h-38.912c2.048 104.448 69.632 196.608 169.984 227.328l12.288-36.864c-83.968-24.576-141.312-102.4-143.36-190.464z m456.704 0h-38.912c0 63.488-28.672 120.832-77.824 157.696l22.528 30.72c59.392-45.056 94.208-112.64 94.208-188.416zM133.12 588.8h61.44c16.384 0 30.72-14.336 30.72-30.72S210.944 527.36 194.56 527.36h-61.44c-16.384 0-30.72 14.336-30.72 30.72S116.736 588.8 133.12 588.8zM133.12 424.96h61.44c16.384 0 30.72-14.336 30.72-30.72S210.944 363.52 194.56 363.52h-61.44c-16.384 0-30.72 14.336-30.72 30.72S116.736 424.96 133.12 424.96zM133.12 261.12h61.44c16.384 0 30.72-14.336 30.72-30.72S210.944 199.68 194.56 199.68h-61.44c-16.384 0-30.72 14.336-30.72 30.72S116.736 261.12 133.12 261.12z"  horiz-adv-x="1024" />

    
    <glyph glyph-name="nav_icon_n2" unicode="&#58888;" d="M512 793.6c157.696 0 286.72-129.024 286.72-286.72s-129.024-286.72-286.72-286.72-286.72 129.024-286.72 286.72S354.304 793.6 512 793.6m0 40.96C331.776 834.56 184.32 687.104 184.32 506.88s147.456-327.68 327.68-327.68 327.68 147.456 327.68 327.68S692.224 834.56 512 834.56zM415.744 259.072c-102.4 38.912-169.984 139.264-169.984 247.808v20.48l40.96-2.048v-16.384c0-92.16 57.344-178.176 145.408-210.944l-16.384-38.912zM673.792 220.16l143.36-215.04c-4.096-18.432-20.48-30.72-38.912-30.72H245.76c-18.432 0-34.816 12.288-38.912 30.72l143.36 215.04-22.528 40.96-163.84-245.76c0-45.056 36.864-81.92 81.92-81.92h532.48c45.056 0 81.92 36.864 81.92 81.92l-163.84 245.76"  horiz-adv-x="1024" />

    
    <glyph glyph-name="my_icon_exit" unicode="&#58891;" d="M29.952 896h614.4v-51.2H29.952zM4.352 896h51.2v-1024H4.352zM29.952-76.8h614.4v-51.2H29.952zM337.152 409.6h640v-51.2H337.152zM766.208 656.8192l253.44-253.44-36.352-36.1984-253.44 253.44zM729.856 147.3792l253.44 253.44 36.352-36.1984-253.44-253.44z"  horiz-adv-x="1024" />

    
    <glyph glyph-name="my_icon_update" unicode="&#58892;" d="M512 384m-512 0a512 512 0 1 1 1024 0 512 512 0 1 1-1024 0ZM238.191304 72.347826l117.849044 200.125217h-200.347826zM623.304348 473.266087h222.920348L759.518609 673.391304zM512 72.347826a311.229217 311.229217 0 0 0-281.266087 178.086957h27.89287A266.974609 266.974609 0 0 1 756.869565 384c0 7.568696-0.512 14.914783-1.135304 22.26087h66.782609c0.534261-7.346087 1.135304-14.692174 1.135304-22.26087a311.652174 311.652174 0 0 0-311.652174-311.652174z m-22.26087 578.782609a265.661217 265.661217 0 0 1-263.123478-311.652174H203.887304a311.318261 311.318261 0 0 0 598.817392 155.826087H732.382609A266.841043 266.841043 0 0 1 489.73913 651.130435z"  horiz-adv-x="1024" />

    
    <glyph glyph-name="my_icon_cache" unicode="&#58893;" d="M362.666667 896m42.666666 0l0 0q42.666667 0 42.666667-42.666667l0-256q0-42.666667-42.666667-42.666666l0 0q-42.666667 0-42.666666 42.666666l0 256q0 42.666667 42.666666 42.666667ZM128 597.333333m21.333333 0l725.333334 0q21.333333 0 21.333333-21.333333l0-21.333333q0-21.333333-21.333333-21.333334l-725.333334 0q-21.333333 0-21.333333 21.333334l0 21.333333q0 21.333333 21.333333 21.333333ZM170.666667 490.666667h682.666666a85.333333 85.333333 0 0 0 85.333334-85.333334l42.666666-448a85.333333 85.333333 0 0 0-85.333333-85.333333H128a85.333333 85.333333 0 0 0-85.333333 85.333333l42.666666 448a85.333333 85.333333 0 0 0 85.333334 85.333334zM256 170.666667h21.333333a21.333333 21.333333 0 0 0 21.333334-21.333334v-277.333333H234.666667V149.333333a21.333333 21.333333 0 0 0 21.333333 21.333334z"  horiz-adv-x="1024" />

    
    <glyph glyph-name="my_icon_exit1" unicode="&#58895;" d="M29.952 896h614.4v-51.2H29.952zM4.352 896h51.2v-1024H4.352zM29.952-76.8h614.4v-51.2H29.952zM337.152 409.6h640v-51.2H337.152zM766.208 656.8192l253.44-253.44-36.352-36.1984-253.44 253.44zM729.856 147.3792l253.44 253.44 36.352-36.1984-253.44-253.44z"  horiz-adv-x="1024" />

    
    <glyph glyph-name="my_icon_about1" unicode="&#58896;" d="M512 384m-512 0a512 512 0 1 1 1024 0 512 512 0 1 1-1024 0ZM512 628.869565m-66.782609 0a66.782609 66.782609 0 1 1 133.565218 0 66.782609 66.782609 0 1 1-133.565218 0ZM445.217391 473.043478m66.782609 0l0 0q66.782609 0 66.782609-66.782608l0-267.130435q0-66.782609-66.782609-66.782609l0 0q-66.782609 0-66.782609 66.782609l0 267.130435q0 66.782609 66.782609 66.782608Z"  horiz-adv-x="1024" />

    
    <glyph glyph-name="data_icon" unicode="&#58899;" d="M512 802.909091c231.563636 0 418.909091-187.345455 418.909091-418.909091S743.563636-34.909091 512-34.909091 93.090909 152.436364 93.090909 384 280.436364 802.909091 512 802.909091m0 46.545454C254.836364 849.454545 46.545455 641.163636 46.545455 384s208.290909-465.454545 465.454545-465.454545 465.454545 208.290909 465.454545 465.454545S769.163636 849.454545 512 849.454545zM199.330909 729.588364L857.576727 71.330909l-32.907636-32.919273L166.423273 696.669091z"  horiz-adv-x="1024" />

    
    <glyph glyph-name="data_icon1" unicode="&#58900;" d="M721.454545 310.690909c98.909091 0 179.2-80.290909 179.2-179.2C900.654545 33.745455 820.363636-46.545455 721.454545-46.545455s-179.2 80.290909-179.2 179.2c0 97.745455 80.290909 178.036364 179.2 178.036364m0 46.545455c-124.509091 0-225.745455-101.236364-225.745454-225.745455C495.709091 8.145455 596.945455-93.090909 721.454545-93.090909s225.745455 101.236364 225.745455 225.745454c-1.163636 124.509091-101.236364 224.581818-225.745455 224.581819zM449.163636 814.545455c64 0 116.363636-52.363636 116.363637-116.363637s-52.363636-116.363636-116.363637-116.363636-116.363636 52.363636-116.363636 116.363636 52.363636 116.363636 116.363636 116.363637m0 46.545454c-89.6 0-162.909091-73.309091-162.909091-162.909091s73.309091-162.909091 162.909091-162.909091 162.909091 73.309091 162.909091 162.909091-72.145455 162.909091-162.909091 162.909091zM111.709091 81.454545h-46.545455c0 229.236364 190.836364 430.545455 407.272728 430.545455 91.927273 0 181.527273-30.254545 251.345454-86.109091l-29.090909-36.072727C633.018182 438.690909 553.890909 465.454545 472.436364 465.454545c-192 0-360.727273-179.2-360.727273-384zM685.381818 249.018182h40.727273V128l-40.727273-4.654545V249.018182zM685.381818 123.345455l159.418182 119.854545 29.090909-41.890909-155.927273-117.527273-32.581818 39.563637z"  horiz-adv-x="1024" />

    
    <glyph glyph-name="data_icon2" unicode="&#58901;" d="M46.545455 58.181818h186.181818v-46.545454H46.545455zM791.272727 58.181818h186.181818v-46.545454H791.272727zM46.545455 58.181818l288.581818 493.381818 40.727272-23.272727L93.090909 34.909091l-46.545454 23.272727zM977.454545 58.181818L692.363636 546.909091 651.636364 523.636364l285.090909-488.727273 40.727272 23.272727zM325.818182 570.181818h372.363636v-46.545454H325.818182zM349.090909 756.363636h46.545455v-209.454545h-46.545455zM628.363636 756.363636h46.545455v-209.454545h-46.545455zM372.363636 756.363636h302.545455v-46.545454H372.363636zM349.090909 221.090909h69.818182v-46.545454h-69.818182zM488.727273 221.090909h69.818182v-46.545454h-69.818182zM628.363636 221.090909h69.818182v-46.545454h-69.818182zM768 221.090909h116.363636v-46.545454H768zM209.454545 221.090909h69.818182v-46.545454h-69.818182z"  horiz-adv-x="1024" />

    
    <glyph glyph-name="data_icon3" unicode="&#58902;" d="M396.8 70.981818H34.909091V612.072727C34.909091 749.381818 146.618182 859.927273 283.927273 859.927273h269.963636C691.2 859.927273 802.909091 749.381818 802.909091 612.072727V477.090909h-46.545455V612.072727C756.363636 723.781818 665.6 814.545455 553.890909 814.545455H283.927273C172.218182 813.381818 81.454545 722.618182 81.454545 612.072727v-494.545454h314.181819v-46.545455zM507.345455 378.181818H152.436364v67.490909c0 110.545455 89.6 200.145455 200.145454 200.145455h132.654546c100.072727 0 185.018182-74.472727 198.981818-173.381818l-46.545455-5.818182c-10.472727 75.636364-75.636364 133.818182-152.436363 133.818182H352.581818c-84.945455 0-153.6-68.654545-153.6-153.6v-20.945455h308.363637v-47.709091zM151.272727 290.909091h186.181818v-46.545455H151.272727zM325.818182 733.090909h186.181818v-46.545454H325.818182zM209.454545-51.2c-69.818182 0-125.672727 55.854545-125.672727 125.672727h46.545455c0-44.218182 36.072727-79.127273 79.127272-79.127272s79.127273 36.072727 79.127273 79.127272h46.545455c0-69.818182-55.854545-125.672727-125.672728-125.672727zM721.454545 384c115.2 0 209.454545-94.254545 209.454546-209.454545s-94.254545-209.454545-209.454546-209.454546-209.454545 94.254545-209.454545 209.454546 94.254545 209.454545 209.454545 209.454545m0 46.545455c-141.963636 0-256-114.036364-256-256s114.036364-256 256-256 256 114.036364 256 256-114.036364 256-256 256zM698.181818 314.181818h46.545455v-186.181818h-46.545455zM698.181818 81.454545h46.545455v-46.545454h-46.545455z"  horiz-adv-x="1024" />

    
    <glyph glyph-name="data_icon4" unicode="&#58903;" d="M438.690909 111.709091C134.981818 182.690909 116.363636 699.345455 116.363636 704V733.090909l27.927273-5.818182c1.163636 0 172.218182-34.909091 304.872727 76.8l12.8 10.472728 15.127273-9.309091c91.927273-58.181818 202.472727-86.109091 310.690909-77.963637l23.272727 1.163637 2.327273-23.272728c11.636364-137.309091-11.636364-247.854545-65.163636-321.163636l-37.236364 27.927273c44.218182 60.509091 64 152.436364 58.181818 267.636363-104.727273-3.490909-210.618182 24.436364-301.381818 77.963637-112.872727-87.272727-244.363636-86.109091-301.381818-80.290909 8.145455-102.4 53.527273-465.454545 285.090909-520.145455l-12.8-45.381818zM320 498.036364l115.2-115.2-32.581818-32.581819-115.2 115.2 32.581818 32.581819zM600.436364 580.654545l32.581818-32.581818L418.909091 333.963636l-32.581818 32.581819 214.109091 214.10909zM721.454545 296.727273c89.6 0 162.909091-73.309091 162.909091-162.909091s-73.309091-162.909091-162.909091-162.909091-162.909091 73.309091-162.90909 162.909091 73.309091 162.909091 162.90909 162.909091m0 46.545454c-115.2 0-209.454545-94.254545-209.454545-209.454545s94.254545-209.454545 209.454545-209.454546 209.454545 94.254545 209.454546 209.454546-94.254545 209.454545-209.454546 209.454545zM695.854545 246.690909h40.727273v-121.018182h-40.727273V246.690909zM695.854545 166.4h121.018182v-39.563636H695.854545v39.563636z"  horiz-adv-x="1024" />

    
    <glyph glyph-name="data_icon5" unicode="&#58904;" d="M512-58.181818C267.636364-58.181818 69.818182 139.636364 69.818182 382.836364c0 141.963636 67.490909 274.618182 182.690909 358.4l34.909091-32.581819C107.054545 584.145455 62.836364 337.454545 187.345455 158.254545 311.854545-20.945455 557.381818-66.327273 737.745455 58.181818 916.945455 182.690909 962.327273 429.381818 837.818182 608.581818c-65.163636 93.090909-166.4 153.6-278.109091 167.563637v46.545454C801.745455 798.254545 977.454545 579.490909 951.854545 337.454545 927.418182 112.872727 737.745455-58.181818 512-58.181818zM558.545455 823.854545v-46.545454c-15.127273 2.327273-31.418182 2.327273-46.545455 3.490909-8.145455 0-15.127273-1.163636-23.272727-1.163636V826.181818c8.145455 0 15.127273 1.163636 23.272727 1.163637 15.127273-1.163636 31.418182-2.327273 46.545455-3.49091zM523.636364 802.909091c19.781818 0 34.909091-3.490909 34.909091-23.272727v-58.181819c0-19.781818-15.127273-34.909091-34.909091-34.90909s-34.909091 15.127273-34.909091 34.90909V791.272727c0 19.781818 15.127273 11.636364 34.909091 11.636364zM512 384m-69.818182 0a69.818182 69.818182 0 1 1 139.636364 0 69.818182 69.818182 0 1 1-139.636364 0ZM518.981818 427.054545l242.036364 139.636364 23.272727-40.727273-242.036364-139.636363-23.272727 40.727272z"  horiz-adv-x="1024" />

    
    <glyph glyph-name="data_icon6" unicode="&#58905;" d="M745.890909 700.509091l67.490909-173.381818-141.963636-54.690909 11.636363-52.363637-45.381818-10.472727-69.818182 307.2L430.545455 795.927273 137.309091 287.418182l308.363636-178.036364-23.272727-40.727273L74.472727 272.290909l337.454546 587.636364 194.327272-112.872728 22.109091-91.927272 117.527273 45.381818zM636.509091 616.727273l82.618182 29.090909 29.090909-89.6-87.272727-32.581818-24.436364 93.090909zM716.8 303.709091c89.6 0 162.909091-73.309091 162.909091-162.909091s-73.309091-162.909091-162.909091-162.909091-162.909091 73.309091-162.909091 162.909091 72.145455 162.909091 162.909091 162.909091m0 46.545454c-115.2 0-209.454545-94.254545-209.454545-209.454545s94.254545-209.454545 209.454545-209.454545 209.454545 94.254545 209.454545 209.454545-94.254545 209.454545-209.454545 209.454545zM697.018182 236.218182h38.4v-114.036364h-38.4v114.036364zM697.018182 160.581818h114.036363v-38.4h-114.036363v38.4z"  horiz-adv-x="1024" />

    


  </font>
</defs>
</svg>
